<svg width="0" height="0" class="hidden">
  <symbol version="1.0" xmlns="http://www.w3.org/2000/svg" preserveAspectRatio="xMidYMid meet" viewBox="0 0 400.000000 400.000000" id="assaultcube">
    <g transform="translate(0.000000,400.000000) scale(0.100000,-0.100000)" fill="var(--clr-card-accent)" stroke="none">
      <path d="M1355 3703 c-40 -21 -44 -29 -34 -72 5 -20 9 -50 9 -67 0 -16 6 -39
14 -49 14 -19 15 -19 33 -2 11 9 29 17 42 17 29 0 44 41 38 103 -4 49 -29 87
-56 87 -9 -1 -29 -8 -46 -17z"></path>
      <path d="M1221 3645 c0 -16 6 -39 14 -49 8 -11 15 -33 15 -49 0 -39 31 -125
47 -131 17 -7 16 19 -2 69 -8 22 -15 47 -15 55 0 8 -7 28 -15 44 -8 15 -15 35
-15 42 0 8 -4 14 -9 14 -5 0 -12 8 -14 18 -3 9 -5 4 -6 -13z"></path>
      <path d="M2495 3616 c-55 -47 -29 -151 31 -124 18 8 27 7 40 -6 9 -9 24 -16
33 -14 23 5 17 136 -8 155 -25 20 -65 15 -96 -11z"></path>
      <path d="M918 3534 c-11 -10 3 -34 19 -34 8 0 13 7 11 17 -3 18 -20 27 -30 17z"></path>
      <path d="M1220 3462 c0 -31 4 -42 15 -42 19 0 19 39 0 64 -14 18 -15 17 -15
-22z"></path>
      <path d="M1550 3444 c0 -48 -40 -100 -97 -125 -36 -15 -42 -43 -23 -107 11
-42 -5 -72 -38 -72 -13 0 -49 13 -80 28 -102 50 -138 58 -185 41 -37 -13 -42
-19 -60 -74 -11 -33 -24 -68 -28 -77 -17 -34 -9 -60 31 -105 56 -65 54 -79
-17 -88 -32 -4 -71 -14 -88 -22 -58 -30 -145 -98 -151 -119 -5 -19 18 -118 37
-154 18 -36 39 -89 39 -100 0 -17 -32 -71 -56 -95 -11 -11 -33 -41 -48 -67
-24 -41 -32 -48 -59 -48 -18 0 -70 16 -117 35 -46 19 -88 35 -92 35 -7 0 -16
-6 -76 -56 -18 -15 -26 -33 -29 -71 -5 -48 -4 -51 30 -71 38 -24 100 -28 177
-11 102 22 118 22 150 2 l30 -19 -32 -35 c-34 -37 -125 -96 -212 -138 l-48
-23 7 -87 c3 -47 8 -93 11 -101 5 -16 107 -80 128 -80 7 0 16 -3 20 -7 4 -5
35 -17 68 -28 l61 -20 18 -75 c10 -41 22 -84 27 -95 17 -38 35 -100 47 -160 9
-48 8 -73 -3 -123 -14 -63 -14 -64 9 -80 12 -9 30 -23 39 -31 9 -9 42 -36 73
-60 42 -32 56 -49 52 -60 -4 -9 -9 -41 -12 -72 -11 -110 48 -139 144 -73 29
20 53 40 53 45 0 16 47 9 63 -9 10 -10 17 -22 17 -26 0 -4 -25 -33 -56 -64
-90 -92 -108 -125 -108 -207 -1 -57 3 -74 19 -91 34 -36 61 -44 144 -44 62 0
87 -4 114 -20 33 -19 36 -20 52 -4 42 43 44 94 9 229 -37 139 -39 155 -23 155
8 0 26 6 41 14 15 8 41 17 59 21 19 4 40 11 49 16 8 4 33 14 56 22 39 15 42
14 85 -12 24 -15 58 -31 74 -35 17 -4 48 -11 70 -16 52 -12 167 -12 198 -1 13
5 31 25 41 45 46 96 144 150 231 126 42 -12 47 -11 60 6 8 10 18 29 21 42 3
12 10 22 14 22 4 0 11 11 14 24 5 22 63 74 70 65 1 -2 9 -22 17 -44 14 -39 16
-40 64 -42 28 -1 64 -9 80 -17 62 -32 165 -15 165 28 0 12 19 59 41 98 5 10 9
25 9 33 0 14 -25 61 -40 75 -3 3 -11 14 -17 25 -60 96 -68 133 -36 158 17 13
27 16 36 9 7 -6 30 -13 52 -17 22 -3 56 -11 77 -17 47 -14 102 -3 129 25 24
26 49 81 49 109 0 26 -56 139 -82 168 -11 12 -18 22 -17 23 2 2 21 10 42 20
28 13 37 23 37 41 0 15 -8 30 -19 35 -17 10 -19 19 -14 89 4 58 2 85 -10 107
-8 17 -18 68 -21 115 -12 152 -27 265 -38 287 -8 17 -8 33 0 62 10 31 9 52 -4
108 l-15 69 41 61 c46 70 62 144 37 176 -8 9 -45 25 -83 35 -105 26 -109 30
-109 104 0 53 6 74 33 125 17 33 32 71 32 83 0 26 -30 79 -45 81 -37 4 -64 -8
-95 -41 -53 -57 -73 -64 -101 -37 -65 63 -153 107 -215 107 -14 0 -26 10 -33
29 -7 15 -23 33 -35 39 -28 12 -92 2 -127 -21 -41 -27 -82 -13 -131 45 -39 47
-43 50 -82 45 -66 -8 -99 -19 -138 -44 -21 -13 -62 -36 -92 -52 l-54 -30 -39
37 c-28 26 -67 47 -136 72 -53 19 -97 38 -97 43 0 4 -7 7 -15 7 -9 0 -15 -10
-15 -26z m535 -555 c17 -10 64 -35 105 -57 41 -21 120 -63 175 -92 55 -29 150
-79 210 -110 81 -42 114 -65 125 -86 9 -20 17 -82 22 -189 4 -88 12 -200 17
-250 6 -49 11 -124 11 -165 0 -41 5 -102 10 -135 10 -59 10 -60 -19 -85 -41
-36 -72 -59 -103 -78 -16 -9 -28 -20 -28 -24 0 -4 -7 -8 -15 -8 -8 0 -15 -3
-15 -7 0 -5 -18 -19 -40 -33 -22 -13 -40 -28 -40 -32 0 -4 -4 -8 -10 -8 -7 0
-313 -218 -375 -268 -5 -4 -32 -23 -60 -42 -27 -19 -53 -39 -57 -45 -9 -13
-17 10 -21 65 l-4 45 -1 -53 -2 -53 -102 54 c-57 30 -119 63 -138 74 -19 11
-78 42 -130 69 -52 27 -97 51 -100 54 -3 3 -32 19 -65 36 -68 35 -213 112
-264 141 -45 25 -49 40 -62 258 -6 99 -14 225 -19 280 -4 55 -8 150 -9 210 -1
99 1 111 18 120 40 21 181 119 181 125 0 4 8 10 18 14 20 6 50 25 71 44 8 8
32 25 53 38 36 23 190 133 213 152 11 9 78 57 111 80 11 7 41 28 68 47 l48 34
97 -51 c53 -29 110 -60 126 -69z"></path>
      <path d="M1770 2065 c7 -8 20 -14 29 -14 13 1 13 2 -1 6 -10 2 -18 9 -18 14 0
5 -5 9 -11 9 -8 0 -8 -5 1 -15z"></path>
      <path d="M724 3425 c-8 -19 3 -35 26 -35 22 0 33 23 17 39 -15 15 -37 14 -43
-4z"></path>
      <path d="M2997 3407 c-3 -8 -1 -20 4 -28 10 -17 42 -1 47 25 4 20 -43 23 -51
3z"></path>
      <path d="M3316 3244 c-51 -51 24 -115 93 -79 36 18 35 15 17 60 -14 32 -19 35
-55 35 -23 0 -46 -7 -55 -16z"></path>
      <path d="M558 3143 c-38 -6 -51 -27 -44 -67 7 -35 36 -76 54 -76 6 0 12 -5 14
-12 2 -6 30 -13 61 -16 66 -5 77 6 59 67 -22 73 -78 113 -144 104z"></path>
      <path d="M520 2960 c0 -17 5 -21 28 -18 16 2 27 9 27 18 0 9 -11 16 -27 18
-23 3 -28 -1 -28 -18z"></path>
      <path d="M3390 2746 c0 -19 5 -26 20 -26 16 0 18 4 11 22 -12 32 -31 34 -31 4z"></path>
      <path d="M345 2740 c20 -22 31 -20 22 5 -4 8 -14 15 -23 15 -16 0 -16 -2 1
-20z"></path>
      <path d="M337 2623 c-13 -12 -7 -21 23 -32 17 -5 30 -15 30 -20 0 -6 7 -11 15
-11 24 0 17 17 -18 44 -37 28 -40 29 -50 19z"></path>
      <path d="M3280 2350 c0 -5 -6 -10 -13 -10 -7 0 -27 -16 -43 -36 -45 -57 -47
-62 -24 -76 11 -7 20 -18 20 -24 0 -6 9 -23 21 -38 15 -19 30 -26 56 -26 39 0
93 27 93 47 0 7 5 13 10 13 6 0 10 22 10 48 0 65 -39 112 -93 112 -21 0 -37
-4 -37 -10z"></path>
      <path d="M3235 1900 c-4 -6 8 -10 29 -10 20 0 36 5 36 10 0 6 -13 10 -29 10
-17 0 -33 -4 -36 -10z"></path>
      <path d="M3270 1851 c0 -5 44 -12 98 -16 53 -4 105 -12 116 -17 20 -11 106 -2
106 11 0 13 -132 31 -229 31 -50 0 -91 -4 -91 -9z"></path>
      <path d="M3690 1769 c0 -22 25 -26 33 -5 3 8 -2 16 -14 19 -14 4 -19 0 -19
-14z"></path>
      <path d="M3580 1675 c0 -16 9 -19 34 -9 20 8 11 24 -15 24 -10 0 -19 -7 -19
-15z"></path>
      <path d="M332 1253 c3 -24 8 -28 41 -31 31 -3 37 0 37 15 0 27 -20 43 -53 43
-25 0 -28 -3 -25 -27z"></path>
      <path d="M3390 1224 c0 -31 23 -28 28 4 2 15 -2 22 -12 22 -11 0 -16 -9 -16
-26z"></path>
      <path d="M527 1146 c-3 -8 -3 -17 0 -20 9 -9 34 15 27 25 -8 13 -21 11 -27 -5z"></path>
      <path d="M3180 1072 c0 -11 87 -102 98 -102 5 0 20 -10 34 -22 14 -13 40 -32
59 -42 19 -11 38 -25 42 -33 4 -7 15 -13 22 -13 8 0 15 -3 15 -8 0 -10 88 -58
95 -51 5 6 -79 89 -90 89 -6 0 -81 55 -95 70 -29 30 -113 90 -134 96 -14 3
-26 10 -26 15 0 5 -4 9 -10 9 -5 0 -10 -3 -10 -8z"></path>
      <path d="M675 838 c-16 -6 -47 -22 -67 -35 -21 -12 -40 -23 -43 -23 -4 0 -32
-13 -63 -28 -32 -16 -69 -32 -84 -35 -15 -4 -44 -23 -65 -42 -31 -29 -34 -35
-18 -35 11 1 31 7 45 15 14 8 34 14 46 15 11 0 31 11 44 25 13 14 32 25 43 25
11 0 28 6 36 14 9 7 45 28 81 47 64 33 90 52 90 63 0 8 -9 7 -45 -6z"></path>
      <path d="M3235 741 c-3 -6 0 -18 9 -26 19 -20 28 -5 11 18 -8 12 -15 14 -20 8z"></path>
      <path d="M2300 656 c0 -16 37 -28 46 -15 8 14 -5 29 -27 29 -10 0 -19 -6 -19
-14z"></path>
      <path d="M2640 632 c0 -13 -6 -22 -15 -22 -8 0 -15 -5 -15 -10 0 -6 7 -13 15
-16 8 -4 15 -12 15 -19 0 -7 7 -18 15 -25 23 -19 20 -43 -4 -30 -23 12 -41 13
-41 2 0 -4 23 -16 50 -27 28 -11 50 -25 50 -31 0 -16 88 -104 104 -104 20 0 4
105 -21 132 -11 13 -31 36 -44 51 -13 16 -43 50 -66 75 -37 40 -43 44 -43 24z
m28 -43 c7 -12 11 -23 8 -26 -7 -7 -36 23 -36 36 0 18 14 13 28 -10z m47 -70
c11 -17 -1 -21 -15 -4 -8 9 -8 15 -2 15 6 0 14 -5 17 -11z"></path>
      <path d="M2970 615 c5 -14 19 -36 31 -48 11 -12 25 -32 30 -44 5 -13 17 -23
28 -23 18 0 18 2 5 28 -14 29 -86 112 -97 112 -4 0 -2 -11 3 -25z"></path>
      <path d="M1874 565 c-18 -28 -13 -99 10 -130 13 -18 15 -18 41 3 15 12 31 22
35 22 5 0 11 -32 15 -70 4 -39 11 -73 16 -76 5 -3 9 -18 9 -35 0 -48 26 -34
44 24 24 77 29 138 14 166 -7 13 -36 33 -64 45 -59 24 -84 43 -84 62 0 22 -18
16 -36 -11z"></path>
      <path d="M2151 526 c-19 -36 -10 -68 22 -79 22 -7 32 -5 48 9 25 23 25 64 -1
71 -11 3 -20 9 -20 14 0 19 -37 8 -49 -15z"></path>
      <path d="M1685 470 c-18 -35 -18 -187 0 -182 6 2 9 12 7 23 -3 18 1 21 47 35
10 3 11 7 1 19 -6 7 -18 11 -26 8 -8 -3 -14 0 -14 6 0 6 4 11 10 11 12 0 24
63 15 89 -9 29 -22 26 -40 -9z"></path>
      <path d="M768 455 c-20 -26 -22 -35 -10 -35 5 0 18 14 30 30 15 19 18 30 10
30 -7 0 -21 -11 -30 -25z"></path>
    </g>
  </symbol>
</svg>