<svg width="0" height="0" class="hidden">
  <symbol version="1.0" xmlns="http://www.w3.org/2000/svg" preserveAspectRatio="xMidYMid meet" viewBox="0 0 1200.000000 1200.000000" id="Midori">
    <g transform="translate(0.000000,1200.000000) scale(0.100000,-0.100000)" fill="var(--clr-card-accent)" stroke="none">
      <path d="M10185 11700 c-765 -132 -1131 -202 -1575 -301 -1540 -344 -2867
-823 -3962 -1430 -1720 -954 -2875 -2213 -3455 -3769 -145 -388 -225 -733
-285 -1230 -19 -162 -22 -234 -22 -580 0 -407 4 -470 50 -750 98 -594 350
-1102 692 -1396 313 -270 695 -403 1155 -404 l158 0 22 -52 c12 -29 51 -114
88 -189 368 -748 974 -1195 1718 -1269 539 -53 1099 125 1424 453 l67 68 76
-45 c243 -148 483 -251 720 -310 173 -43 241 -51 434 -51 152 0 205 4 298 23
539 108 1000 466 1429 1107 234 349 472 824 678 1346 42 107 98 241 124 299
155 338 296 833 435 1530 200 1001 372 2347 450 3530 36 532 40 659 40 1120 1
524 -8 652 -56 797 -39 119 -120 175 -215 151 -36 -9 -68 -33 -166 -126 -1255
-1187 -2309 -2009 -3215 -2506 -561 -308 -1074 -466 -1357 -417 -199 35 -287
139 -287 341 0 400 368 1002 978 1600 920 901 2241 1673 3774 2205 124 43 227
80 229 82 2 1 -6 35 -17 75 -12 40 -24 92 -28 116 -6 37 -9 42 -33 41 -14 0
-179 -27 -366 -59z m-925 -437 c-679 -318 -1096 -546 -1570 -858 -1245 -820
-2132 -1829 -2275 -2590 -24 -128 -17 -305 17 -396 51 -137 131 -232 249 -294
112 -59 201 -78 369 -78 203 0 357 29 615 116 959 324 2296 1271 3865 2740 74
69 138 123 142 119 27 -28 37 -720 18 -1159 -38 -845 -135 -1866 -266 -2798
-179 -1270 -396 -2221 -620 -2718 -31 -67 -82 -192 -116 -277 -286 -735 -599
-1306 -928 -1695 -98 -116 -292 -302 -390 -374 -229 -170 -461 -269 -708 -302
-119 -16 -352 -6 -472 19 -239 51 -503 161 -738 306 -72 45 -92 62 -97 85 -3
15 -20 41 -36 57 -40 37 -63 83 -142 284 -138 349 -223 671 -272 1025 -22 156
-30 530 -16 694 34 387 135 741 312 1093 53 105 56 121 35 171 -18 43 -61 70
-111 70 -67 0 -90 -23 -162 -166 -209 -418 -315 -846 -330 -1337 -17 -570 103
-1148 367 -1775 38 -88 71 -170 74 -181 5 -18 -6 -35 -57 -86 -284 -289 -812
-440 -1298 -372 -624 87 -1127 476 -1445 1120 -66 133 -74 155 -69 190 5 27
-8 109 -39 264 -111 556 -152 947 -143 1365 6 275 24 429 76 633 45 179 95
304 229 577 208 419 219 456 159 521 -26 28 -42 37 -77 41 -64 6 -105 -22
-133 -90 -11 -28 -72 -155 -135 -281 -184 -371 -254 -555 -306 -803 -51 -240
-60 -353 -60 -693 0 -397 30 -702 110 -1127 14 -76 28 -154 31 -175 l5 -36
-58 -4 c-33 -2 -123 -1 -202 4 -690 40 -1165 456 -1397 1223 -188 623 -186
1491 6 2305 91 386 334 974 579 1401 926 1613 2642 2852 5065 3657 664 221
1367 405 2220 581 173 36 195 36 125 4z"></path>
    </g>
  </symbol>
</svg>