<svg width="0" height="0" class="hidden">
  <symbol version="1.0" xmlns="http://www.w3.org/2000/svg" preserveAspectRatio="xMidYMid meet" viewBox="0 0 256.000000 256.000000" id="super-tux-kart">
    <g transform="translate(0.000000,256.000000) scale(0.100000,-0.100000)" fill="var(--clr-card-accent)" stroke="none">
      <path d="M1050 2261 c-77 -32 -120 -117 -120 -239 0 -26 -3 -71 -6 -99 l-7
-53 -226 -1 c-170 0 -220 -3 -203 -11 13 -7 22 -20 22 -35 0 -21 -4 -23 -55
-23 -47 0 -55 3 -55 19 0 36 -43 52 -116 45 -71 -7 -89 -23 -60 -52 13 -14 44
-18 158 -22 l141 -5 23 -68 c18 -52 20 -66 8 -57 -8 7 -17 10 -20 7 -3 -3 11
-17 31 -32 19 -15 38 -25 41 -22 3 3 -6 42 -21 87 -15 45 -25 84 -21 87 15 15
35 -13 75 -106 25 -55 46 -99 48 -97 2 2 -14 44 -36 94 -23 49 -41 95 -41 101
0 8 44 11 143 11 l142 0 -51 -48 c-30 -28 -58 -66 -70 -94 -12 -31 -25 -48
-36 -48 -24 0 -31 -17 -12 -28 11 -6 18 -27 22 -62 l5 -53 -55 6 c-31 3 -81
18 -114 35 -76 38 -164 116 -164 145 0 20 -2 19 -20 -8 -62 -94 26 -201 138
-167 28 9 41 8 64 -4 l30 -15 -48 -31 c-56 -35 -63 -36 -281 -46 -152 -7 -164
-9 -188 -32 -38 -36 -48 -88 -40 -215 14 -224 33 -260 133 -260 31 0 95 3 142
7 l85 8 -3 -117 c-5 -195 22 -302 89 -348 l39 -27 177 23 c199 26 210 26 273
9 33 -8 107 -10 270 -5 302 9 803 76 980 130 120 37 190 64 190 74 0 3 -11 11
-25 18 -14 6 -22 7 -19 2 3 -5 -3 -12 -13 -15 -10 -4 -45 -18 -78 -31 -148
-61 -88 -49 -505 -107 -268 -37 -350 -45 -545 -50 -258 -7 -309 1 -362 56
l-28 29 48 -21 c26 -12 62 -20 80 -18 32 3 32 3 35 66 3 61 1 65 -43 129 -26
36 -43 69 -38 73 9 8 94 30 117 30 16 0 116 -121 116 -140 0 -8 8 -10 23 -6
127 37 305 60 281 37 -12 -12 -194 -49 -256 -52 l-48 -3 0 -63 c0 -35 3 -63 8
-63 109 2 897 98 1073 132 l117 22 6 48 c10 76 -16 112 -133 181 l-44 26 44
-6 c54 -7 174 -83 206 -132 13 -19 23 -27 23 -18 0 8 -11 29 -25 45 -16 20
-25 42 -25 66 0 81 -67 199 -133 233 -26 13 -52 15 -169 9 l-137 -7 -137 117
c-75 64 -145 132 -156 150 -31 52 -78 76 -146 74 -31 -1 -63 -2 -69 -1 -24 2
-13 31 22 62 30 27 35 37 35 76 0 75 -32 112 -172 197 -37 22 -35 34 5 38 24
2 33 8 35 24 3 18 -4 23 -32 28 -51 10 -63 27 -70 103 -16 166 -48 244 -116
289 -50 33 -95 38 -150 15z m89 -132 c23 -25 35 -70 26 -98 -5 -16 -2 -18 14
-14 16 4 18 11 14 36 -7 45 11 87 37 87 29 0 54 -61 47 -117 -3 -28 1 -49 10
-63 8 -12 13 -22 12 -23 -2 -1 -19 -10 -37 -20 -24 -14 -50 -18 -95 -17 -100
4 -105 2 -51 -25 62 -32 99 -32 141 1 18 14 33 20 33 14 0 -5 18 -52 40 -104
22 -51 40 -96 40 -98 0 -3 -26 -5 -57 -5 -72 -1 -139 -36 -182 -94 -16 -22
-32 -36 -35 -30 -3 5 -35 19 -71 31 -36 12 -65 24 -65 27 0 2 11 23 24 46 25
44 76 185 76 210 0 8 -6 27 -14 42 -11 22 -12 32 -3 46 7 11 15 19 19 19 4 0
0 16 -8 37 -19 45 -11 97 19 118 29 20 43 19 66 -6z m-766 -306 c-13 -2 -33
-2 -45 0 -13 2 -3 4 22 4 25 0 35 -2 23 -4z m957 -233 c-12 -16 -19 -34 -16
-39 3 -4 -4 -8 -16 -7 -15 1 -24 10 -29 31 -10 35 1 45 49 45 l33 0 -21 -30z
m70 -80 c-13 -32 -23 -34 -74 -14 -10 4 -3 -15 20 -54 l36 -60 30 34 c17 19
34 34 39 34 11 0 12 -73 2 -120 l-6 -33 -24 29 c-18 21 -22 23 -14 7 10 -19 9
-22 -3 -17 -18 7 -126 171 -126 192 0 8 6 12 15 8 9 -3 37 3 63 13 26 10 49
17 51 15 2 -2 -2 -17 -9 -34z m-181 19 c36 -13 40 -25 11 -34 -11 -3 -20 -9
-20 -13 0 -4 -11 -8 -25 -8 -26 -2 -32 16 -19 50 7 19 11 19 53 5z m55 -123
c-19 -4 -38 -6 -41 -3 -3 3 5 23 17 43 l23 37 18 -34 17 -34 -34 -9z m-235 48
c47 -6 56 -11 73 -40 10 -18 31 -40 46 -50 29 -19 105 -24 157 -12 28 8 32 5
63 -49 33 -56 33 -57 14 -76 -26 -26 -85 -36 -215 -37 -95 0 -113 3 -156 25
-70 35 -93 78 -99 178 l-5 80 34 -6 c19 -4 58 -9 88 -13z m-691 -272 c-2 -22
-9 -28 -34 -30 -36 -4 -59 18 -49 47 7 22 41 31 68 18 12 -6 17 -17 15 -35z
m1266 -8 c58 -32 65 -44 27 -44 -20 0 -35 7 -43 20 -7 11 -19 20 -26 20 -7 0
-11 -4 -8 -9 3 -5 -1 -11 -9 -15 -13 -5 -45 27 -45 46 0 17 60 7 104 -18z
m-370 -24 c36 -16 66 -34 66 -40 0 -15 -41 -12 -70 5 -14 8 -31 17 -37 21 -7
3 -45 -7 -85 -22 -81 -31 -171 -47 -165 -30 8 24 159 93 209 95 9 1 46 -12 82
-29z m226 -6 c0 -13 -86 -44 -122 -44 -31 0 -10 26 44 53 52 27 78 24 78 -9z
m-1363 -91 c-3 -10 -5 -2 -5 17 0 19 2 27 5 18 2 -10 2 -26 0 -35z m808 -52
c-3 -5 -33 -10 -68 -10 -34 0 -91 -3 -127 -7 -46 -4 -62 -3 -55 4 6 6 51 13
100 15 50 1 105 4 123 5 18 1 31 -2 27 -7z m-128 -183 c-3 -8 -6 -5 -6 6 -1
11 2 17 5 13 3 -3 4 -12 1 -19z m-300 -168 c2 -109 2 -113 -12 -75 -17 51 -20
240 -3 210 7 -11 13 -71 15 -135z m268 110 c0 -21 -5 -26 -31 -28 -26 -3 -33
1 -37 20 -7 26 8 39 43 36 19 -2 25 -9 25 -28z m42 -2 c-3 -7 -5 -2 -5 12 0
14 2 19 5 13 2 -7 2 -19 0 -25z"></path>
      <path d="M1091 2076 c-12 -15 -6 -62 10 -72 17 -10 49 7 49 27 0 48 -35 74
-59 45z"></path>
      <path d="M1216 2074 c-11 -29 -6 -62 10 -68 28 -11 34 -7 34 23 0 39 -9 61
-25 61 -7 0 -16 -7 -19 -16z"></path>
    </g>
  </symbol>
</svg>